<svg width="149" height="37" viewBox="0 0 149 37" fill="none" xmlns="http://www.w3.org/2000/svg">
<path d="M19.8082 27.6448H20.5C21.2735 27.6448 22.0154 27.3375 22.5624 26.7906C23.1094 26.2436 23.4167 25.5017 23.4167 24.7282V10.4167C23.4167 9.64312 23.1094 8.90125 22.5624 8.35427C22.0154 7.80729 21.2735 7.5 20.5 7.5H9.41667C8.775 7.5 8.18 7.70767 7.69817 8.06M7.69817 8.06L15.8812 11.9112C16.1811 12.0527 16.4347 12.2765 16.6123 12.5566C16.79 12.8367 16.8844 13.1615 16.8845 13.4932V27.3287C16.8846 27.6234 16.8102 27.9134 16.6683 28.1717C16.5264 28.4301 16.3216 28.6484 16.0728 28.8064C15.824 28.9644 15.5393 29.057 15.2452 29.0757C14.951 29.0943 14.6569 29.0384 14.3902 28.913L7.5115 25.6755C7.21136 25.5339 6.95766 25.3099 6.78001 25.0296C6.60236 24.7493 6.50808 24.4242 6.50817 24.0923M7.69817 8.06C7.32712 8.33058 7.0252 8.68611 6.817 9.09543C6.60879 9.50474 6.50018 9.95744 6.5 10.4167V24.0923" stroke="black" stroke-width="1.75" stroke-linecap="round" stroke-linejoin="round"/>
<path d="M12.9167 20.0417C13.7221 20.0417 14.375 19.3887 14.375 18.5833C14.375 17.7779 13.7221 17.125 12.9167 17.125C12.1113 17.125 11.4584 17.7779 11.4584 18.5833C11.4584 19.3887 12.1113 20.0417 12.9167 20.0417Z" fill="black"/>
<path d="M43.932 26.668C42.38 26.668 40.964 26.308 39.684 25.588C38.404 24.852 37.388 23.836 36.636 22.54C35.9 21.228 35.532 19.756 35.532 18.124C35.532 16.492 35.9 15.028 36.636 13.732C37.388 12.42 38.404 11.404 39.684 10.684C40.964 9.948 42.38 9.58 43.932 9.58C45.5 9.58 46.924 9.948 48.204 10.684C49.484 11.404 50.492 12.412 51.228 13.708C51.964 15.004 52.332 16.476 52.332 18.124C52.332 19.772 51.964 21.244 51.228 22.54C50.492 23.836 49.484 24.852 48.204 25.588C46.924 26.308 45.5 26.668 43.932 26.668ZM43.932 24.772C45.1 24.772 46.148 24.5 47.076 23.956C48.02 23.412 48.756 22.636 49.284 21.628C49.828 20.62 50.1 19.452 50.1 18.124C50.1 16.78 49.828 15.612 49.284 14.62C48.756 13.612 48.028 12.836 47.1 12.292C46.172 11.748 45.116 11.476 43.932 11.476C42.748 11.476 41.692 11.748 40.764 12.292C39.836 12.836 39.1 13.612 38.556 14.62C38.028 15.612 37.764 16.78 37.764 18.124C37.764 19.452 38.028 20.62 38.556 21.628C39.1 22.636 39.836 23.412 40.764 23.956C41.708 24.5 42.764 24.772 43.932 24.772ZM57.3992 15.772C57.8312 15.02 58.4712 14.396 59.3192 13.9C60.1832 13.388 61.1832 13.132 62.3192 13.132C63.4872 13.132 64.5432 13.412 65.4872 13.972C66.4472 14.532 67.1992 15.324 67.7432 16.348C68.2872 17.356 68.5592 18.532 68.5592 19.876C68.5592 21.204 68.2872 22.388 67.7432 23.428C67.1992 24.468 66.4472 25.276 65.4872 25.852C64.5432 26.428 63.4872 26.716 62.3192 26.716C61.1992 26.716 60.2072 26.468 59.3432 25.972C58.4952 25.46 57.8472 24.828 57.3992 24.076V32.74H55.2152V13.348H57.3992V15.772ZM66.3272 19.876C66.3272 18.884 66.1272 18.02 65.7272 17.284C65.3272 16.548 64.7832 15.988 64.0952 15.604C63.4232 15.22 62.6792 15.028 61.8632 15.028C61.0632 15.028 60.3192 15.228 59.6312 15.628C58.9592 16.012 58.4152 16.58 57.9992 17.332C57.5992 18.068 57.3992 18.924 57.3992 19.9C57.3992 20.892 57.5992 21.764 57.9992 22.516C58.4152 23.252 58.9592 23.82 59.6312 24.22C60.3192 24.604 61.0632 24.796 61.8632 24.796C62.6792 24.796 63.4232 24.604 64.0952 24.22C64.7832 23.82 65.3272 23.252 65.7272 22.516C66.1272 21.764 66.3272 20.884 66.3272 19.876ZM83.4339 19.42C83.4339 19.836 83.4099 20.276 83.3619 20.74H72.8499C72.9299 22.036 73.3699 23.052 74.1699 23.788C74.9859 24.508 75.9699 24.868 77.1219 24.868C78.0659 24.868 78.8499 24.652 79.4739 24.22C80.1139 23.772 80.5619 23.18 80.8179 22.444H83.1699C82.8179 23.708 82.1139 24.74 81.0579 25.54C80.0019 26.324 78.6899 26.716 77.1219 26.716C75.8739 26.716 74.7539 26.436 73.7619 25.876C72.7859 25.316 72.0179 24.524 71.4579 23.5C70.8979 22.46 70.6179 21.26 70.6179 19.9C70.6179 18.54 70.8899 17.348 71.4339 16.324C71.9779 15.3 72.7379 14.516 73.7139 13.972C74.7059 13.412 75.8419 13.132 77.1219 13.132C78.3699 13.132 79.4739 13.404 80.4339 13.948C81.3939 14.492 82.1299 15.244 82.6419 16.204C83.1699 17.148 83.4339 18.22 83.4339 19.42ZM81.1779 18.964C81.1779 18.132 80.9939 17.42 80.6259 16.828C80.2579 16.22 79.7539 15.764 79.1139 15.46C78.4899 15.14 77.7939 14.98 77.0259 14.98C75.9219 14.98 74.9779 15.332 74.1939 16.036C73.4259 16.74 72.9859 17.716 72.8739 18.964H81.1779ZM92.7248 13.108C94.3248 13.108 95.6208 13.596 96.6128 14.572C97.6048 15.532 98.1008 16.924 98.1008 18.748V26.5H95.9408V19.06C95.9408 17.748 95.6128 16.748 94.9568 16.06C94.3008 15.356 93.4048 15.004 92.2688 15.004C91.1168 15.004 90.1968 15.364 89.5088 16.084C88.8368 16.804 88.5008 17.852 88.5008 19.228V26.5H86.3168V13.348H88.5008V15.22C88.9328 14.548 89.5168 14.028 90.2528 13.66C91.0048 13.292 91.8288 13.108 92.7248 13.108ZM113.14 14.788C112.756 14.084 112.228 13.548 111.556 13.18C110.884 12.812 110.1 12.628 109.204 12.628C108.212 12.628 107.332 12.852 106.564 13.3C105.796 13.748 105.196 14.388 104.764 15.22C104.332 16.052 104.116 17.012 104.116 18.1C104.116 19.22 104.332 20.196 104.764 21.028C105.212 21.86 105.828 22.5 106.612 22.948C107.396 23.396 108.308 23.62 109.348 23.62C110.628 23.62 111.676 23.284 112.492 22.612C113.308 21.924 113.844 20.972 114.1 19.756H108.34V17.188H117.412V20.116C117.188 21.284 116.708 22.364 115.972 23.356C115.236 24.348 114.284 25.148 113.116 25.756C111.964 26.348 110.668 26.644 109.228 26.644C107.612 26.644 106.148 26.284 104.836 25.564C103.54 24.828 102.516 23.812 101.764 22.516C101.028 21.22 100.66 19.748 100.66 18.1C100.66 16.452 101.028 14.98 101.764 13.684C102.516 12.372 103.54 11.356 104.836 10.636C106.148 9.9 107.604 9.532 109.204 9.532C111.092 9.532 112.732 9.996 114.124 10.924C115.516 11.836 116.476 13.124 117.004 14.788H113.14ZM125.802 26.716C124.522 26.716 123.37 26.436 122.346 25.876C121.322 25.3 120.514 24.492 119.922 23.452C119.346 22.412 119.058 21.212 119.058 19.852C119.058 18.492 119.354 17.292 119.946 16.252C120.554 15.212 121.378 14.412 122.418 13.852C123.458 13.276 124.618 12.988 125.898 12.988C127.178 12.988 128.338 13.276 129.378 13.852C130.418 14.412 131.234 15.212 131.826 16.252C132.434 17.292 132.738 18.492 132.738 19.852C132.738 21.212 132.426 22.412 131.802 23.452C131.194 24.492 130.362 25.3 129.306 25.876C128.266 26.436 127.098 26.716 125.802 26.716ZM125.802 23.788C126.41 23.788 126.978 23.644 127.506 23.356C128.05 23.052 128.482 22.604 128.802 22.012C129.122 21.42 129.282 20.7 129.282 19.852C129.282 18.588 128.946 17.62 128.274 16.948C127.618 16.26 126.81 15.916 125.85 15.916C124.89 15.916 124.082 16.26 123.426 16.948C122.786 17.62 122.466 18.588 122.466 19.852C122.466 21.116 122.778 22.092 123.402 22.78C124.042 23.452 124.842 23.788 125.802 23.788ZM140.747 23.404L144.107 13.204H147.683L142.763 26.5H138.683L133.787 13.204H137.387L140.747 23.404Z" fill="black"/>
</svg>
